<?xml version="1.0" standalone="no"?>
<!DOCTYPE svg PUBLIC "-//W3C//DTD SVG 20010904//EN"
 "http://www.w3.org/TR/2001/REC-SVG-20010904/DTD/svg10.dtd">
<svg version="1.0" xmlns="http://www.w3.org/2000/svg"
 width="508.000000pt" height="200.000000pt" viewBox="0 0 508.000000 200.000000"
 preserveAspectRatio="xMidYMid meet">

<g transform="translate(0.000000,200.000000) scale(0.100000,-0.100000)"
fill="#000000" stroke="none">
<path d="M2700 1951 c0 -43 -4 -53 -31 -75 -17 -14 -41 -26 -55 -26 -13 0 -24
-4 -24 -10 0 -5 12 -10 26 -10 15 0 38 -12 55 -29 24 -24 29 -38 29 -75 0 -61
16 -59 24 3 5 39 13 55 37 75 17 14 41 26 55 26 13 0 24 5 24 10 0 6 -9 10
-20 10 -55 0 -100 54 -100 119 0 17 -4 31 -10 31 -5 0 -10 -22 -10 -49z"/>
<path d="M835 1866 c-125 -40 -281 -172 -339 -288 l-28 -57 -28 14 c-52 27
-80 71 -80 128 l-1 52 -19 -24 c-14 -16 -20 -38 -20 -71 0 -58 28 -97 89 -125
l40 -18 -6 -76 c-10 -138 32 -218 119 -228 56 -7 103 8 168 53 l49 34 -34 -76
c-77 -168 -170 -275 -297 -338 -131 -66 -242 -55 -317 31 -135 152 -57 407
141 463 52 15 96 3 115 -33 36 -70 -15 -238 -93 -306 -22 -20 -29 -31 -19 -31
26 0 102 78 130 133 42 86 33 172 -27 234 -99 102 -258 42 -337 -127 -37 -78
-36 -183 1 -256 33 -62 94 -119 165 -151 47 -22 65 -24 146 -21 78 2 102 8
159 35 126 59 189 145 263 356 15 43 43 100 61 127 39 56 31 74 -12 28 -48
-51 -143 -117 -186 -128 -50 -14 -100 1 -124 38 -20 29 -26 141 -12 193 7 25
13 27 85 33 108 10 157 23 236 64 89 46 159 110 191 174 35 70 34 112 -3 149
-25 25 -37 29 -83 28 -29 0 -71 -6 -93 -13z m159 -38 c63 -89 -71 -252 -253
-308 -65 -21 -195 -27 -205 -11 -10 16 90 155 158 218 91 86 160 120 243 122
33 1 45 -4 57 -21z"/>
<path d="M1386 1871 c-4 -7 -40 -11 -92 -11 -81 0 -84 -1 -74 -19 12 -24 13
-211 1 -244 -9 -24 -9 -24 74 -31 46 -3 90 -9 98 -12 10 -3 18 5 26 27 15 43
15 43 -15 20 -20 -15 -41 -21 -80 -21 l-54 0 0 70 c0 69 0 70 27 70 15 0 38
-10 51 -22 22 -20 24 -20 19 -5 -4 11 -10 30 -13 43 -6 22 -8 23 -27 9 -44
-31 -57 -21 -57 45 l0 60 53 0 c41 0 58 -5 72 -20 24 -27 28 -20 12 20 -9 19
-17 28 -21 21z"/>
<path d="M1492 1774 c-14 -10 -22 -25 -22 -45 0 -27 6 -33 65 -59 68 -30 86
-51 68 -79 -18 -27 -73 -17 -105 18 -29 32 -32 31 -22 -6 14 -50 144 -56 166
-7 18 39 -3 70 -68 102 -65 31 -88 57 -64 72 26 17 57 11 89 -16 32 -27 35
-25 25 14 -6 19 -13 22 -58 22 -30 0 -61 -6 -74 -16z"/>
<path d="M1681 1783 c-19 -4 -21 -7 -10 -14 18 -10 26 -235 10 -279 -10 -29
-9 -30 22 -30 l32 0 -3 72 -4 73 24 -22 c46 -44 109 -21 129 46 30 102 -43
193 -122 151 -10 -6 -19 -16 -19 -22 0 -9 3 -9 12 0 19 19 55 14 72 -10 23
-32 21 -120 -2 -148 -14 -17 -25 -21 -44 -17 -33 9 -51 52 -47 114 4 71 0 93
-13 92 -7 -1 -24 -4 -37 -6z"/>
<path d="M1944 1782 c-6 -4 -14 -19 -18 -34 l-6 -27 24 24 c35 35 83 34 96 -1
15 -39 14 -41 -42 -46 -59 -6 -88 -32 -88 -78 0 -57 63 -78 106 -35 30 30 34
31 34 5 0 -14 7 -20 23 -20 22 0 22 2 17 89 -7 111 -21 131 -89 131 -25 0 -51
-4 -57 -8z m99 -126 c-3 -39 -31 -68 -62 -64 -21 2 -27 9 -29 35 -4 37 28 65
68 61 21 -3 25 -8 23 -32z"/>
<path d="M2174 1775 c-33 -22 -57 -81 -49 -118 8 -37 28 -63 69 -87 32 -20 74
-14 107 16 27 25 23 35 -7 19 -27 -14 -73 -7 -99 15 -26 21 -38 77 -25 114 18
55 56 61 101 17 l29 -29 -6 26 c-4 15 -9 30 -11 35 -7 13 -88 7 -109 -8z"/>
<path d="M2402 1774 c-70 -49 -66 -161 8 -199 57 -30 116 -9 145 51 23 48 13
99 -27 136 -35 32 -90 38 -126 12z m83 -18 c33 -33 49 -98 35 -141 -22 -65
-78 -54 -112 22 -44 99 12 184 77 119z"/>
<path d="M2849 1685 c-3 -34 -9 -43 -39 -57 -20 -10 -28 -18 -17 -18 27 0 57
-37 58 -72 l1 -33 11 40 c9 30 21 44 47 57 27 14 30 18 14 18 -27 0 -54 31
-64 72 l-7 33 -4 -40z"/>
<path d="M2671 1564 c0 -12 -8 -27 -17 -35 -14 -11 -14 -13 0 -21 9 -5 16 -19
17 -31 0 -19 2 -19 11 6 5 15 17 27 26 27 13 0 12 3 -5 15 -12 8 -24 25 -26
38 -4 21 -4 21 -6 1z"/>
<path d="M2220 1530 c-23 -7 -23 -8 -3 -9 12 -1 25 4 28 9 3 6 5 10 3 9 -2 -1
-14 -5 -28 -9z"/>
<path d="M3431 1376 c-18 -19 -47 -40 -62 -47 -36 -14 -38 -39 -4 -39 l25 0 0
-176 0 -176 29 -29 c56 -55 147 -34 187 44 l17 31 -32 -27 c-35 -29 -88 -36
-109 -15 -8 8 -12 63 -12 180 l0 168 70 0 c56 0 70 3 70 15 0 12 -14 15 -69
15 l-70 0 -3 46 -3 45 -34 -35z"/>
<path d="M1006 1315 c-166 -59 -192 -302 -42 -402 39 -27 58 -33 101 -33 67 0
101 13 144 53 98 93 95 263 -5 346 -60 49 -128 61 -198 36z m158 -46 c33 -39
39 -65 34 -142 -5 -76 -46 -167 -89 -198 -98 -70 -188 29 -159 175 32 162 144
248 214 165z"/>
<path d="M1415 1319 c-11 -4 -40 -8 -64 -8 l-44 -1 27 -26 c25 -26 26 -31 26
-148 1 -210 23 -256 119 -256 58 0 104 28 141 84 l25 39 3 -57 3 -56 66 0 65
0 -23 19 c-24 19 -24 23 -27 219 l-3 200 -32 -9 c-18 -5 -50 -9 -72 -9 l-40 0
30 -24 c27 -22 30 -30 33 -99 5 -102 -17 -179 -68 -229 -48 -48 -90 -52 -117
-11 -15 22 -19 57 -23 204 -5 171 -6 176 -25 168z"/>
<path d="M1950 1319 c-14 -4 -42 -7 -63 -8 l-39 -1 26 -31 c26 -30 26 -33 26
-185 0 -151 -1 -156 -25 -179 l-24 -25 97 1 c76 0 92 3 75 11 -35 17 -46 69
-41 182 6 112 23 166 61 191 35 23 71 11 113 -39 l36 -41 -7 45 c-10 64 -20
78 -61 86 -48 9 -98 -15 -121 -58 l-18 -33 -5 46 c-5 43 -6 45 -30 38z"/>
<path d="M2320 1319 c-14 -4 -44 -7 -67 -8 l-41 -1 29 -30 30 -30 -3 -161 c-3
-155 -4 -161 -27 -180 l-23 -19 91 0 c91 0 91 0 71 20 -28 28 -33 60 -28 158
6 106 37 186 80 208 31 16 61 7 72 -22 3 -8 6 -83 6 -165 0 -146 -1 -151 -25
-174 l-24 -25 95 0 95 0 -26 23 c-69 59 -28 319 57 367 26 14 29 13 50 -8 21
-21 23 -33 26 -149 4 -148 -1 -186 -30 -213 -20 -18 -20 -21 -5 -33 27 -20 37
-64 37 -164 l0 -96 -38 41 c-42 46 -73 57 -138 49 -88 -10 -137 -90 -138 -223
0 -132 52 -211 146 -221 59 -7 114 19 142 66 l21 36 3 -47 3 -48 72 0 c59 1
68 3 52 12 -43 25 -44 32 -45 301 l0 258 25 24 24 25 -24 25 c-24 23 -25 29
-25 167 0 171 -9 212 -52 234 -57 30 -140 -8 -168 -76 -16 -39 -30 -38 -30 1
0 21 -10 40 -30 61 -27 27 -36 30 -72 25 -46 -6 -99 -50 -120 -101 -13 -31
-13 -30 -18 35 -5 64 -5 65 -30 58z m380 -678 c37 -36 64 -129 56 -185 -24
-150 -135 -204 -195 -96 -20 35 -25 58 -25 119 0 90 16 143 51 171 37 29 79
26 113 -9z"/>
<path d="M3075 1318 c-146 -53 -194 -258 -87 -371 47 -50 97 -70 167 -65 70 4
123 35 150 88 22 42 19 46 -11 17 -43 -43 -144 -49 -199 -13 -32 21 -71 82
-80 124 l-7 32 148 0 147 0 -6 52 c-11 86 -63 139 -144 144 -26 2 -61 -1 -78
-8z m88 -39 c27 -20 53 -91 42 -109 -3 -6 -49 -10 -101 -10 -105 0 -109 4 -80
74 27 64 90 85 139 45z"/>
<path d="M4077 1219 c-61 -14 -116 -47 -137 -82 -27 -43 -26 -97 1 -126 19
-20 29 -23 71 -19 32 4 57 13 70 26 l21 21 -42 -11 c-49 -12 -115 2 -125 27
-29 76 147 140 317 115 81 -11 337 -67 345 -75 2 -2 -19 -15 -46 -29 -57 -29
-143 -109 -189 -176 -17 -25 -60 -101 -97 -169 -87 -161 -152 -255 -229 -328
-77 -74 -136 -108 -219 -129 -162 -40 -288 52 -288 211 0 199 209 453 394 480
96 15 164 -61 153 -170 -19 -185 -240 -411 -321 -329 -20 19 -20 70 -2 107 13
23 13 27 1 27 -19 0 -45 -52 -45 -90 0 -62 59 -90 146 -71 219 49 341 408 177
517 -99 66 -274 23 -385 -94 -91 -95 -138 -210 -138 -338 0 -316 325 -410 570
-165 75 76 147 181 250 366 124 224 171 292 237 343 34 25 45 27 153 32 87 4
124 10 143 23 40 26 59 60 51 92 l-7 27 -19 -30 c-33 -53 -99 -77 -203 -76
-75 0 -111 7 -212 37 -211 65 -303 78 -396 56z"/>
<path d="M4531 883 c0 -12 -11 -29 -23 -37 l-22 -16 21 -15 c12 -8 24 -25 26
-38 4 -18 4 -18 6 6 1 19 8 30 23 36 l22 8 -21 12 c-12 6 -24 23 -26 38 -3 22
-4 23 -6 6z"/>
<path d="M948 753 c-2 -31 -9 -41 -34 -53 l-30 -16 30 -14 c25 -12 32 -22 34
-52 2 -21 7 -38 12 -38 5 0 10 17 12 38 2 30 9 40 34 52 l30 14 -30 16 c-25
12 -32 22 -34 53 -2 20 -7 37 -12 37 -5 0 -10 -17 -12 -37z"/>
<path d="M2278 753 c-2 -31 -9 -41 -34 -53 l-30 -16 30 -14 c25 -12 32 -22 34
-52 2 -21 7 -38 12 -38 5 0 10 17 12 38 2 30 9 40 34 52 l30 14 -30 16 c-25
12 -32 22 -34 53 -2 20 -7 37 -12 37 -5 0 -10 -17 -12 -37z"/>
<path d="M1191 763 c0 -12 -9 -27 -18 -33 -17 -10 -17 -10 0 -20 9 -6 18 -21
18 -33 1 -20 2 -20 6 -2 3 11 10 26 15 33 7 8 7 16 0 25 -5 6 -12 21 -15 32
-4 18 -5 18 -6 -2z"/>
<path d="M3004 699 c-38 -9 -42 -13 -48 -47 -11 -70 -9 -77 19 -44 80 96 205
76 205 -33 l0 -45 -67 0 c-119 -1 -193 -55 -193 -142 0 -54 15 -85 52 -109 60
-37 136 -12 186 61 l22 33 0 -52 0 -51 72 0 c68 0 71 1 51 15 -32 23 -43 75
-43 213 0 137 -10 171 -60 197 -32 17 -130 19 -196 4z m176 -241 c0 -86 -46
-142 -114 -140 -57 2 -84 70 -53 132 16 33 72 60 125 60 l42 0 0 -52z"/>
<path d="M4490 695 c-36 -7 -57 -13 -48 -14 40 -2 48 -38 48 -201 0 -162 -3
-176 -45 -198 -16 -9 3 -11 85 -11 79 0 101 2 87 10 -38 22 -47 69 -47 254 0
96 -3 174 -7 174 -5 -1 -37 -7 -73 -14z"/>
<path d="M4765 705 c-5 -2 -22 -6 -37 -9 -22 -5 -28 -14 -37 -56 -6 -28 -11
-54 -11 -58 0 -3 17 10 38 30 47 45 72 58 114 58 55 -1 88 -40 88 -104 l0 -36
-64 0 c-105 0 -164 -30 -193 -99 -30 -71 14 -155 89 -167 49 -8 104 20 136 69
l27 41 3 -52 3 -52 53 0 c29 0 56 3 59 6 3 4 -3 18 -13 32 -18 22 -20 41 -20
159 0 153 -11 192 -62 223 -25 15 -49 20 -98 19 -36 0 -69 -2 -75 -4z m155
-235 c0 -71 -46 -144 -95 -151 -60 -9 -89 21 -87 89 3 68 46 101 135 102 l47
0 0 -40z"/>
<path d="M1670 664 c-75 -20 -176 -61 -222 -90 -21 -13 -40 -24 -43 -24 -2 0
-50 -25 -106 -56 -102 -57 -234 -108 -255 -100 -14 6 -24 -15 -24 -51 0 -22
-2 -24 -16 -12 -15 12 -16 11 -10 -9 4 -12 4 -22 -1 -23 -4 0 -125 -2 -268 -4
-237 -3 -409 7 -542 30 -40 7 -63 29 -63 61 0 29 38 48 79 40 14 -3 204 -7
421 -10 244 -3 378 -2 350 4 -68 13 -804 32 -833 21 -31 -12 -40 -26 -39 -63
1 -34 17 -57 50 -69 80 -31 770 -53 851 -27 25 8 53 7 105 -2 120 -21 193 -48
396 -145 159 -76 208 -95 265 -103 156 -21 328 34 435 138 62 60 78 118 56
202 -37 140 -155 255 -301 292 -74 20 -212 20 -285 0z m306 -28 c47 -15 170
-94 160 -103 -2 -3 -26 7 -53 20 -60 30 -94 38 -175 39 -73 1 -156 -16 -210
-43 -21 -11 -43 -19 -50 -19 -7 0 -37 -12 -67 -26 -79 -36 -280 -92 -358 -100
l-68 -6 220 111 c260 132 327 153 460 147 50 -2 113 -11 141 -20z m23 -77 c66
-15 168 -67 196 -100 20 -25 50 -98 42 -105 -1 -1 -47 7 -102 17 -84 17 -129
19 -280 15 -99 -2 -198 -6 -220 -9 -22 -3 -83 -10 -135 -16 -51 -7 -123 -16
-160 -22 -68 -10 -239 -28 -277 -29 -19 0 -23 5 -23 33 l0 33 92 2 c116 3 330
53 473 112 179 74 289 93 394 69z m106 -204 c142 -24 135 -21 135 -60 0 -29
-7 -39 -46 -69 -68 -52 -145 -78 -244 -83 -92 -5 -129 3 -325 70 -55 19 -134
40 -175 47 -41 6 -97 16 -123 21 -26 5 -64 9 -84 9 -82 0 4 23 132 35 33 3 98
10 145 16 47 5 132 12 190 16 58 3 107 7 109 9 11 10 206 2 286 -11z m-675
-107 c16 0 163 -44 195 -58 81 -36 219 -74 276 -76 77 -4 172 17 243 51 l51
25 -30 -25 c-49 -42 -171 -96 -254 -112 -124 -25 -190 -9 -380 89 -85 44 -175
89 -200 99 l-46 20 65 -7 c36 -3 72 -6 80 -6z"/>
<path d="M1111 602 c0 -12 -8 -25 -16 -29 -14 -5 -14 -8 -1 -22 7 -9 16 -25
19 -36 4 -19 5 -19 6 1 0 12 8 27 16 34 13 11 13 14 1 24 -8 6 -16 20 -19 31
-4 18 -5 17 -6 -3z"/>
</g>
</svg>
