<?xml version="1.0" encoding="UTF-8"?>
<svg width="210mm" height="175.4mm" version="1.1" viewBox="0 0 210 175.4" xmlns="http://www.w3.org/2000/svg">
 <g transform="translate(0 -61.813)">
  <path transform="scale(.99433 1.0057)" d="m8.513 169.13c0 14.605 6.8463 34.688 24.875 34.688 26.244 0 60.247-59.106 60.247-81.015 0-9.1284-7.9874-19.17-17.8-15.975 0.45642 0 7.0745-0.22821 7.0745 10.726 0 23.506-26.472 80.33-53.629 80.33-12.095 0-14.377-10.269-14.377-20.539 0-51.575 52.488-108.63 105.2-108.63 11.41 0 20.995 3.1949 27.385 9.813-19.17 14.605-24.418 24.647-43.36 52.26l-25.56 44.273c-7.7591 12.78-17.572 23.962-28.07 34.003-5.7052 4.336-12.095 7.9874-18.941 7.9874-4.1078 0-7.9874-2.2821-11.41-2.2821-1.3693 0-3.1949 5.0206-3.6514 6.3899 12.552-0.45642 26.472 0 38.567 3.8796 15.518 5.0206 28.298 9.813 44.501 9.813 25.56 0 56.14-17.344 56.14-45.87 0-21.908-21.68-27.842-39.709-29.439 22.593-10.498 48.837-30.352 48.837-57.965 0-8.672-2.2821-15.518-7.5309-22.593 5.7052-5.0206 21.452-9.813 25.56-9.813 12.552 0 21.224 10.269 22.136 21.452 2.5103-14.149-8.4438-24.875-23.506-24.875-6.1617 0-12.095 0.68463-17.8 3.4232-1.8257 0.68463-8.4438 4.1078-10.954 5.477 0 0-8.672-5.2488-9.5848-5.477-7.5309-3.4232-15.746-4.336-23.734-4.336-52.032 0-110.91 50.434-110.91 104.29zm36.742 50.206c16.888-8.2156 31.265-22.365 40.85-38.567l29.439-49.522c10.041-16.888 23.277-36.97 35.829-47.011 2.5103 4.336 3.8796 9.813 3.8796 16.203 0 19.398-13.464 36.742-28.298 47.696-3.4232 2.2821-23.049 11.411-23.049 12.095 0 0.91284 0 1.141 0.68463 1.5975 17.116 0.45642 40.85 6.1617 40.85 27.613 0 25.788-30.58 39.024-52.26 39.024-5.7052 0-11.41 0-16.888-1.5975z" stroke-width=".22113" aria-label="B"/>
 </g>
</svg>
