<?xml version="1.0" encoding="UTF-8"?>
<svg width="289.04mm" height="187.56mm" version="1.1" viewBox="0 0 289.04 187.56" xmlns="http://www.w3.org/2000/svg">
 <g transform="translate(-1.52 -55.226)">
  <path transform="scale(.99433 1.0057)" d="m233.75 178.49c0.91282-1.141-1.8256-1.8256-3.1949 0l-20.31 31.949c-2.5103 3.8795-8.6718 13.692-13.921 13.692-1.141 0-1.5974-0.68461-2.0538-1.5974 0-21.223 45.185-109.08 56.823-127.8 8.9-14.149 21.68-34.231 39.708-35.6-1.141-1.141-7.5308-1.5974-8.9-1.5974-29.895 0-71.428 46.098-84.436 69.603l-25.103 45.413c0.45642-1.8256 0.91283-6.3898 1.141-9.3564l2.9667-58.649c0.68462-11.41 4.3359-26.244 15.974-31.492v-2.7385c-1.3692-2.0539-10.041 2.0539-13.692 2.0539-6.3898 0-13.236-0.68462-19.169-2.2821l-35.6-9.8129c-6.3898-1.8256-13.236-2.7385-19.626-2.7385-13.692 0-40.164 6.3898-40.164 23.962 0 14.605 22.592 18.485 33.318 18.485 12.78 0 26.7-2.9667 34.003-14.833-10.954 4.1077-21.908 6.3898-33.774 6.3898-3.4231 0-30.123-1.3692-30.123-7.0744 0-2.0539 1.3692-4.1077 2.5103-5.2487 9.5847-10.269 23.505-11.182 36.741-11.182 22.136 0 46.554 7.9872 71.885 7.9872-4.5641 5.7051-11.182 9.8129-15.746 15.974-19.626 25.331-30.58 54.998-47.695 81.47-16.431 25.103-40.164 51.118-72.341 51.118-23.962 0-36.057-14.833-36.057-37.882 0-31.492 21.68-59.79 48.608-73.939 7.0744-3.6513 15.062-7.5308 23.277-7.5308 14.149 0 20.995 12.78 20.995 25.787 0 20.31-25.103 62.072-47.695 62.072-6.8462 0-9.8129-6.3898-9.8129-12.095 0-6.3898 2.0539-10.726 6.618-14.833-7.3026 0-12.323 6.8462-12.323 15.746 0 11.182 7.759 14.605 16.887 14.605 29.895 0 52.259-34.003 52.259-61.844 0-21.451-12.78-32.862-33.318-32.862-40.164 0-70.287 39.708-70.287 78.046 0 29.439 16.659 52.487 47.239 52.487 43.587 0 69.146-41.99 87.175-75.536 3.8795-7.0744 21.451-41.305 25.331-48.608 0.2282-0.45641 0.91282-1.3692 1.3692-2.5103l4.3359-7.3026c0.68462-1.141 1.141-2.0539 1.3692-2.5103 0.91283-1.5974 3.4231-6.1616 5.7052-7.9872-2.5103 6.1616-4.5641 13.236-5.2487 20.082l-4.5641 44.5c-2.5103 23.962-13.008 51.575-28.069 70.516 0 0.45642 0.45641 0.45642 0.91282 0.45642 8.2154 0 22.592-17.572 26.015-23.962l34.459-62.757c11.41-20.539 26.928-41.305 46.098-54.998 1.141-0.68462 5.0205-3.1949 5.7052-3.6513 1.141-0.68462 4.1077-2.2821 4.1077-2.2821h0.45641c-24.874 29.667-67.777 105.66-67.777 142.63 0 5.7052 2.7385 12.095 9.1282 12.095 4.5641 0 8.4436-3.6513 10.497-7.5308z" stroke-width=".22113" aria-label="M"/>
 </g>
</svg>
