<?xml version="1.0" encoding="UTF-8"?>
<svg version="1.1" viewBox="0 0 175.55 183" xmlns="http://www.w3.org/2000/svg">
 <g transform="translate(-4.5599 -61.813) fill="currentColor" stroke="none"">
  <path transform="scale(.99433 1.0057)" d="m120.56 122.58c0 18.028 2.9667 35.372 2.9667 53.857 0 32.862-27.613 60.931-60.475 60.931-31.949 0-48.151-24.874-48.151-54.769 0-35.372 17.8-70.972 46.554-91.054 7.5308-5.2487 15.974-9.8129 25.331-9.8129 15.29 0 21.223 13.236 21.223 26.928 0 24.19-21.451 90.826-51.346 90.826-5.7052 0-7.3026-0.68462-10.954-2.9667 0 8.4436 2.7385 13.692 13.236 13.692 33.318 0 55.454-68.234 55.454-93.564 0-20.539-10.041-39.48-32.405-39.48-45.185 0-75.764 60.931-75.764 100.41 0 34.916 24.646 65.039 60.475 65.039 46.098 0 67.093-39.251 67.093-79.872 0-15.062-1.8256-29.895-1.8256-44.5 0-17.8 4.5641-52.259 29.439-52.259 4.7923 0 6.618 3.4231 6.618 8.6718 0 14.377-10.497 38.567-17.115 46.554v0.68462c13.464-6.3898 25.787-36.741 25.787-48.38 0-7.3026-5.0205-11.41-12.323-11.41-27.157 0-43.816 37.198-43.816 60.475z" stroke-width=".22113" aria-label="S"/>
 </g>
</svg>
